<?xml version="1.0" encoding="iso-8859-1"?>
<!-- Generator: Adobe Illustrator 16.0.0, SVG Export Plug-In . SVG Version: 6.00 Build 0)  -->
<!DOCTYPE svg PUBLIC "-//W3C//DTD SVG 1.1//EN" "http://www.w3.org/Graphics/SVG/1.1/DTD/svg11.dtd">
<svg version="1.1" id="Capa_1" xmlns="http://www.w3.org/2000/svg" xmlns:xlink="http://www.w3.org/1999/xlink" x="0px" y="0px"
	 width="147.18px" height="147.18px" viewBox="0 0 147.18 147.18" style="enable-background:new 0 0 147.18 147.18;"
	 xml:space="preserve">
<g>
	<g id="_x34_24._Server">
		<g>
			<path d="M129.659,91.111H17.521c-7.744,0-14.017,6.276-14.017,14.017v28.035c0,7.74,6.273,14.017,14.017,14.017h112.138
				c7.74,0,14.017-6.276,14.017-14.017v-28.035C143.676,97.388,137.399,91.111,129.659,91.111z M129.659,133.163H17.521v-28.035
				h112.138V133.163z M115.642,126.154c3.867,0,7.009-3.142,7.009-7.009c0-3.874-3.142-7.009-7.009-7.009s-7.009,3.135-7.009,7.009
				C108.633,123.013,111.774,126.154,115.642,126.154z M129.659,28.031H17.521c-7.744,0-14.017,6.276-14.017,14.021v28.034
				c0,7.741,6.273,14.017,14.017,14.017h112.138c7.74,0,14.017-6.276,14.017-14.017V42.051
				C143.676,34.307,137.399,28.031,129.659,28.031z M129.659,70.085H17.521V42.051h112.138V70.085z M115.642,63.077
				c3.867,0,7.009-3.14,7.009-7.009c0-3.872-3.142-7.009-7.009-7.009s-7.009,3.137-7.009,7.009
				C108.633,59.937,111.774,63.077,115.642,63.077z M136.667,0H10.513C6.644,0,3.504,3.136,3.504,7.008v7.008
				c0,3.869,3.14,7.009,7.008,7.009h126.154c3.867,0,7.009-3.14,7.009-7.009V7.008C143.676,3.136,140.534,0,136.667,0z"/>
		</g>
	</g>
</g>
<g>
</g>
<g>
</g>
<g>
</g>
<g>
</g>
<g>
</g>
<g>
</g>
<g>
</g>
<g>
</g>
<g>
</g>
<g>
</g>
<g>
</g>
<g>
</g>
<g>
</g>
<g>
</g>
<g>
</g>
</svg>
