<svg xmlns="http://www.w3.org/2000/svg" width="206.31" height="48.88" viewBox="0 0 206.31 48.88">
  <defs>
    <style>
      .cls-1 {
        fill: #91d7ff;
        fill-rule: evenodd;
      }
    </style>
  </defs>
  <path id="лого" class="cls-1" d="M870.881,4301.47c1.3-1.17,2.349-2.03,3.122-2.65,1.147-.94,1.493-1.22,1.494-1.54a0.386,0.386,0,0,0-.14-0.3c-0.611-.5-4.407,2.04-5.842,3.03-5.05-4.49-13.739-5.42-19.707-4.86a42.013,42.013,0,0,0-22.177,9.04c-5.373,4.21-8.773,9.44-8.871,13.65a6.774,6.774,0,0,0,2.446,5.53c5.3,4.57,15.2,1.33,19.971-2.99,5.786-5.25,8.939-14.13,8.588-15.66a0.456,0.456,0,0,0-.3-0.36,0.292,0.292,0,0,0-.35.17c-0.037.08-3.691,8.54-9.179,13.42-4.8,4.27-12.28,7.28-16.677,4.45a5.073,5.073,0,0,1-2.414-4.24c-0.125-3.65,2.885-8.13,8.051-11.98,7.092-5.3,14.24-8.22,21.245-8.71l0.621-.04c5.5-.39,12.333-0.86,17.65,3.37a78.676,78.676,0,0,0-16.482,16.01c-1.277,1.73-2.454,3.28-3.591,4.74a2.33,2.33,0,0,1-1.143-1.72c-0.058-1.46,1.9-2.97,2.946-3.78a3.546,3.546,0,0,0,.821-0.73,0.285,0.285,0,0,0-.018-0.32,0.3,0.3,0,0,0-.306-0.11c-0.177.05-4.344,1.15-5.228,4.57a3.938,3.938,0,0,0,1.31,4.13c-9.962,12.34-17.883,17.85-25.664,17.85-6.736,0-7.98-3.6-8.209-4.91a3.395,3.395,0,0,0,4.132-5.08,3.321,3.321,0,0,0-2.457-1.27,3.7,3.7,0,0,0-2.827.85,4.82,4.82,0,0,0-1.7,4.11c0,2.13,2.723,8.29,11.057,8.29,8.642,0,13.728-2.71,17.194-5.08,2.238-1.53,6.88-4.7,13.017-12.69a13.435,13.435,0,0,0,2.77.33,18.445,18.445,0,0,0,13.48-5.29C873.133,4315.58,874.693,4306.5,870.881,4301.47Zm-5.754,16.27c-3.284,3.27-8.244,5.49-12,5.41,0.745-1.03,1.437-2.03,2.107-3.03a101.684,101.684,0,0,1,14.7-17.78C872.253,4306.18,868.234,4314.64,865.127,4317.74Zm101.307,2.46a3.345,3.345,0,0,0,2.129-.79,2.4,2.4,0,0,0,1-1.9,1.847,1.847,0,0,0-.552-1.35,1.962,1.962,0,0,0-1.473-.57,3.163,3.163,0,0,0-2.2.84,2.5,2.5,0,0,0-.933,1.88,1.834,1.834,0,0,0,.557,1.36A2.053,2.053,0,0,0,966.434,4320.2Zm49.766,12.63-0.56-.44a0.3,0.3,0,0,0-.39.02c-0.37.37-.91,0.94-1.64,1.75-0.69.76-1.52,1.62-2.45,2.55-0.92.91-1.92,1.79-2.96,2.63a17.078,17.078,0,0,1-3.19,2.06,6.9,6.9,0,0,1-3.05.78c-0.49,0-.59-0.2-0.59-0.53a3.585,3.585,0,0,1,.75-1.74,25.106,25.106,0,0,1,2.58-3.15l9.58-10.47a0.287,0.287,0,0,0,.04-0.33,0.312,0.312,0,0,0-.3-0.16,9.609,9.609,0,0,1-1.02.08c-0.45.02-.8,0.03-1.07,0.03a6.031,6.031,0,0,1-1.62-.2,0.282,0.282,0,0,0-.3.09c-0.4.44-.81,0.91-1.24,1.4-0.22.25-.46,0.52-0.72,0.82a3.219,3.219,0,0,0,.03-0.43,2.005,2.005,0,0,0-1.18-1.8,5.394,5.394,0,0,0-2.64-.61,17.12,17.12,0,0,0-6.374,1.38,21.979,21.979,0,0,0-7.276,5.47,15.533,15.533,0,0,0-1.122,1.3c-2.5,2.01-9.3,7.08-11.043,7.93a8.18,8.18,0,0,1-3.539.92,1.491,1.491,0,0,1-.873-0.16,0.4,0.4,0,0,1-.171-0.35,0.82,0.82,0,0,1,.241-0.45,8.4,8.4,0,0,1,.731-0.74,13.233,13.233,0,0,0,3.33-3.49,5.377,5.377,0,0,0,.671-2.41,3.746,3.746,0,0,0-2.408-3.41c0.233-.17.466-0.34,0.695-0.53a10.182,10.182,0,0,0,1.127-1.08,4.889,4.889,0,0,1,4.826-1.62,2.589,2.589,0,0,0-.257.22,1.539,1.539,0,0,0-.437,1.01,1.506,1.506,0,0,0,.572,1.35,2.03,2.03,0,0,0,1.338.51,2.738,2.738,0,0,0,1.558-.46,1.893,1.893,0,0,0,.751-1.6,2.126,2.126,0,0,0-.915-1.73c-1.634-1.36-5.809-1.39-8.635,1.65a11.883,11.883,0,0,1-1.2,1.12,4.453,4.453,0,0,1-.966.57,10.633,10.633,0,0,0-1.309-.22c8.027-9.03,23.189-25.75,23.389-25.98a0.282,0.282,0,0,0,.046-0.32,0.288,0.288,0,0,0-.283-0.16q-0.376.03-.685,0.06a3.036,3.036,0,0,1-.494.04c-0.739.02-1.321,0.01-1.73-.02s-0.741-.06-0.969-0.08a0.291,0.291,0,0,0-.244.1l-17.616,20.55c-4.1,3.27-16.867,13.46-18.08,14.4a22.38,22.38,0,0,1-3.578,2.32,7.159,7.159,0,0,1-3.219.91,9.535,9.535,0,0,1-1.241-.1c-0.475-.06-0.541-0.27-0.541-0.49a2.844,2.844,0,0,1,.5-1.29,22.906,22.906,0,0,1,1.935-2.57c0.94-1.13,2.3-2.66,4.039-4.55q2.628-2.865,6.776-7.3a0.293,0.293,0,0,0-.249-0.49c-0.144.02-.293,0.03-0.448,0.04-0.339.02-1,.02-2.208-0.01-0.632-.02-1.033-0.04-1.2-0.05a0.3,0.3,0,0,0-.241.08c-0.367.39-.7,0.75-1.051,1.12-4.093,2.94-19.911,13.76-21.216,14.47a8.426,8.426,0,0,1-3.9,1.14c-0.756-.03-1.14-0.21-1.14-0.53a1.892,1.892,0,0,1,.268-0.75,17.262,17.262,0,0,1,1.116-1.77c0.551-.8,1.375-1.9,2.448-3.29,1.09-1.4,2.532-3.2,4.282-5.33l6.5-7.63h6.209c0.872,0,1-.43,1-0.68,0-.3-0.19-0.65-1.088-0.65H945.63l6.028-7.68a0.3,0.3,0,0,0,.022-0.33,0.29,0.29,0,0,0-.3-0.14,7.184,7.184,0,0,1-1.184.1c-0.744.02-1.318,0.01-1.722-.01s-0.719-.06-0.959-0.09a0.3,0.3,0,0,0-.272.11l-6.082,8.04h-5.214c-0.34,0-1.371,0-1.371.7,0,0.41.385,0.63,1.144,0.63h4.286c-0.5.43-5.912,4.72-10.3,8.19-3.387,2.69-6.313,5-6.612,5.26a15.131,15.131,0,0,1-2.091,1.46,9.564,9.564,0,0,0,.294-2.95,24.335,24.335,0,0,0-.374-2.91q-0.283-1.5-.526-2.88a11.459,11.459,0,0,1-.208-2.26,2.728,2.728,0,0,1,.049-0.57,3.922,3.922,0,0,1,.75-0.93c1.2-1.26,1.371-1.74,1.389-2.03a1.163,1.163,0,0,0-1.429-1.15,1.361,1.361,0,0,0-1.221.77,5.635,5.635,0,0,0-.524,1.4,2.58,2.58,0,0,0-.263.4c-2.868,2.45-16.017,13.44-17.494,14.67a17.109,17.109,0,0,1-3.082,2.05,6.523,6.523,0,0,1-2.951.78,0.457,0.457,0,0,1-.56-0.53,3.648,3.648,0,0,1,.725-1.74,24.7,24.7,0,0,1,2.5-3.15l9.273-10.47a0.308,0.308,0,0,0,.039-0.34,0.292,0.292,0,0,0-.3-0.14c-0.231.03-.563,0.05-0.988,0.07s-0.78.03-1.034,0.03a5.661,5.661,0,0,1-1.57-.2,0.306,0.306,0,0,0-.3.09q-0.579.675-1.2,1.41c-0.2.24-.43,0.5-0.677,0.79a3.9,3.9,0,0,0,.023-0.41,2.006,2.006,0,0,0-1.137-1.8,5.132,5.132,0,0,0-2.568-.61,16.194,16.194,0,0,0-6.181,1.38,21.51,21.51,0,0,0-7.049,5.47c-0.283.3-.545,0.61-0.793,0.91-1.23.91-2.65,1.96-3.941,2.91-2.063,1.53-3.892,2.87-4.366,3.23a22.937,22.937,0,0,1-3.634,2.23,7.856,7.856,0,0,1-3.41.87c-1.044,0-1.044-.41-1.044-0.56a1.783,1.783,0,0,1,.149-0.63,9.046,9.046,0,0,1,.823-1.36c0.455-.66,1.169-1.63,2.123-2.88s2.3-2.97,4-5.14l23.359-29.43a0.281,0.281,0,0,0,.029-0.31,0.3,0.3,0,0,0-.278-0.16c-0.253.02-.482,0.04-0.684,0.07a4.849,4.849,0,0,1-.5.04,16.98,16.98,0,0,1-1.716-.03c-0.409-.03-0.747-0.06-1.014-0.08a0.271,0.271,0,0,0-.246.11L877.9,4320.84l-15.817,12.59a0.3,0.3,0,0,0-.105.28l0.192,1.02a0.3,0.3,0,0,0,.185.22,0.271,0.271,0,0,0,.284-0.05l11.844-9.41-3.173,4.84c-1.522,1.99-2.685,3.54-3.555,4.72s-1.528,2.14-1.96,2.85a7.591,7.591,0,0,0-.857,1.77,5.344,5.344,0,0,0-.195,1.43,2.109,2.109,0,0,0,.894,1.72,3.435,3.435,0,0,0,2.154.66,9.8,9.8,0,0,0,4.056-.94,22.073,22.073,0,0,0,4-2.34c0.407-.29,3.22-2.34,6.006-4.38-0.029.06-.067,0.13-0.094,0.2a10.263,10.263,0,0,0-.8,3.8,3.842,3.842,0,0,0,.886,2.66,3.558,3.558,0,0,0,2.79,1,10.268,10.268,0,0,0,4.615-1.63,19.524,19.524,0,0,0,3.658-2.78,6.54,6.54,0,0,0-.688,1.22,3.616,3.616,0,0,0-.253,1.3c0,1.26,1.024,1.89,3.044,1.89a8.082,8.082,0,0,0,3.525-.85,18.564,18.564,0,0,0,3.411-2.15c0.83-.65,12.233-10.11,16.728-13.9a14.457,14.457,0,0,0-.636,3.47c-0.088,1.49-.177,2.61-0.269,3.41a11.294,11.294,0,0,1-1.946,5.41,9.265,9.265,0,0,1-3.233,2.81,6.09,6.09,0,0,1-3.4.7,5.076,5.076,0,0,1-1.84-.59,1.282,1.282,0,0,1-.716-1.2,2.115,2.115,0,0,1,.534-1.47,2.322,2.322,0,0,1,.736-0.49c0.108,0.07.24,0.15,0.393,0.25a2.485,2.485,0,0,0,2.354.06,1.545,1.545,0,0,0,.757-1.19,1.229,1.229,0,0,0-1.457-1.27,5.064,5.064,0,0,0-1.67.43,6.048,6.048,0,0,0-2.014,1.32,3.117,3.117,0,0,0-.955,2.33,2.561,2.561,0,0,0,1.233,2.34,6.359,6.359,0,0,0,2.607.92,11.123,11.123,0,0,0,1.231.06,19.9,19.9,0,0,0,6.018-.89,7.56,7.56,0,0,0,4.046-3.73,13.3,13.3,0,0,0,3.2-1.85c0.29-.24,3.05-2.4,6.244-4.91,2.589-2.03,4.867-3.81,6.689-5.25l-2.489,3.07c-1.493,1.92-2.709,3.5-3.612,4.72-0.883,1.18-1.556,2.15-2,2.87a7.843,7.843,0,0,0-.884,1.81,5.171,5.171,0,0,0-.211,1.46,2,2,0,0,0,.9,1.68,4.3,4.3,0,0,0,2.516.62,9.686,9.686,0,0,0,4.573-1.24c1.028-.56,10.369-6.87,16.779-11.29-0.358.4-.708,0.8-1.023,1.15-1.544,1.77-2.735,3.22-3.539,4.32a14.088,14.088,0,0,0-1.668,2.73,4.954,4.954,0,0,0-.449,1.9,2.024,2.024,0,0,0,1.218,1.82,6.144,6.144,0,0,0,2.939.61,9.4,9.4,0,0,0,3.975-.95,23.272,23.272,0,0,0,3.886-2.35c0.613-.46,7.44-5.9,12.895-10.26l-10.86,12.67a0.29,0.29,0,0,0,.291.47c0.2-.05.516-0.1,0.949-0.16a7.945,7.945,0,0,1,1-.09,8.582,8.582,0,0,1,1.591.13,0.3,0.3,0,0,0,.293-0.12c1.554-2.16,3.292-4.51,5.168-6.98,0.3-.4,1.21-1.46,2.53-2.96a9.072,9.072,0,0,0,1.574-.14,7.554,7.554,0,0,0,2.04-.69c0.9,0.3,1.361.7,1.361,1.19a0.928,0.928,0,0,1-.227.5,10.084,10.084,0,0,1-1.068,1.11,13.273,13.273,0,0,0-2.818,3.17,5.155,5.155,0,0,0-.746,2.41,3.383,3.383,0,0,0,.7,2.1,2.891,2.891,0,0,0,2.435.95,8.99,8.99,0,0,0,4.038-1.01,80.637,80.637,0,0,0,9.315-6.63c-0.024.06-.058,0.12-0.082,0.18a9.976,9.976,0,0,0-.832,3.8,3.81,3.81,0,0,0,.916,2.67,3.761,3.761,0,0,0,2.872.99,10.827,10.827,0,0,0,4.757-1.63,19.951,19.951,0,0,0,3.819-2.82,6.13,6.13,0,0,0-.734,1.26,3.448,3.448,0,0,0-.262,1.3c0,1.26,1.054,1.89,3.13,1.89a8.48,8.48,0,0,0,3.63-.85,18.749,18.749,0,0,0,3.53-2.15,34.853,34.853,0,0,0,3.18-2.73c0.98-.94,1.85-1.83,2.61-2.64s1.34-1.42,1.76-1.85a0.349,0.349,0,0,0,.08-0.22A0.284,0.284,0,0,0,1016.2,4332.83Zm-12.26-.33c-0.38.43-.81,0.89-1.26,1.39a40.688,40.688,0,0,1-7.1,6.36,9.527,9.527,0,0,1-4.644,1.88,0.877,0.877,0,0,1-.987-1.05,6.647,6.647,0,0,1,.9-2.91,19.834,19.834,0,0,1,3.024-4.06,31.844,31.844,0,0,1,6.765-5.77c2.02-1.18,3.49-1.78,4.36-1.78a2.325,2.325,0,0,1,1.21.34,0.971,0.971,0,0,1,.49.92,3.609,3.609,0,0,1-.49,1.64,16.116,16.116,0,0,1-1.14,1.82C1004.71,4331.66,1004.33,4332.07,1003.94,4332.5Zm-106.608,0c-0.376.43-.783,0.9-1.221,1.39a39.61,39.61,0,0,1-6.88,6.37,9.1,9.1,0,0,1-4.489,1.87,0.862,0.862,0,0,1-.947-1.05,6.809,6.809,0,0,1,.877-2.91,20.032,20.032,0,0,1,2.928-4.07,30.787,30.787,0,0,1,6.553-5.76c1.954-1.18,3.371-1.78,4.211-1.78a2.109,2.109,0,0,1,1.168.34,0.984,0.984,0,0,1,.467.92,3.683,3.683,0,0,1-.477,1.65,17.046,17.046,0,0,1-1.1,1.82C898.074,4331.67,897.709,4332.07,897.332,4332.5Z" transform="translate(-810 -4295)"/>
</svg>
