<svg xmlns="http://www.w3.org/2000/svg" width="114" height="27.031" viewBox="0 0 114 27.031">
  <defs>
    <style>
      .cls-1 {
        fill: #91d7ff;
        fill-rule: evenodd;
      }
    </style>
  </defs>
  <path id="лого" class="cls-1" d="M843.638,28.562c0.721-.649,1.3-1.12,1.725-1.468a1.809,1.809,0,0,0,.826-0.85,0.206,0.206,0,0,0-.078-0.162c-0.337-.277-2.435,1.124-3.227,1.674-2.79-2.48-7.592-3-10.889-2.686a23.194,23.194,0,0,0-12.253,4.993c-2.969,2.326-4.847,5.216-4.9,7.544a3.745,3.745,0,0,0,1.352,3.055c2.929,2.524,8.4.738,11.034-1.653,3.2-2.9,4.939-7.808,4.745-8.65a0.244,0.244,0,0,0-.166-0.2,0.159,0.159,0,0,0-.194.091,24.505,24.505,0,0,1-5.071,7.417c-2.654,2.359-6.785,4.022-9.215,2.456a2.8,2.8,0,0,1-1.333-2.342c-0.07-2.016,1.593-4.49,4.448-6.62a22.353,22.353,0,0,1,11.738-4.808l0.343-.024c3.041-.214,6.815-0.478,9.752,1.859a43.6,43.6,0,0,0-9.106,8.847c-0.706.956-1.356,1.814-1.984,2.62a1.287,1.287,0,0,1-.632-0.95c-0.032-.808,1.048-1.641,1.628-2.089a2.036,2.036,0,0,0,.454-0.4,0.161,0.161,0,0,0-.179-0.237c-0.1.025-2.4,0.636-2.889,2.521a2.177,2.177,0,0,0,.724,2.284c-5.5,6.821-9.881,9.864-14.18,9.864-3.722,0-4.409-1.993-4.536-2.715a1.874,1.874,0,0,0,2.283-2.8,1.846,1.846,0,0,0-1.357-.705,2.046,2.046,0,0,0-1.562.475A2.656,2.656,0,0,0,810,47.165c0,1.175,1.5,4.582,6.109,4.582a15.745,15.745,0,0,0,9.5-2.808,29.257,29.257,0,0,0,7.192-7.009,7.45,7.45,0,0,0,1.53.179,10.191,10.191,0,0,0,7.448-2.919C844.883,36.357,845.744,31.34,843.638,28.562Zm-3.179,8.987a10.13,10.13,0,0,1-6.63,2.993c0.412-.573.794-1.124,1.165-1.679a56.163,56.163,0,0,1,8.12-9.819C844.4,31.164,842.176,35.837,840.459,37.549Zm55.975,1.36a1.839,1.839,0,0,0,1.176-.435,1.324,1.324,0,0,0,.555-1.051,1.03,1.03,0,0,0-.306-0.746,1.091,1.091,0,0,0-.813-0.312,1.757,1.757,0,0,0-1.216.463,1.386,1.386,0,0,0-.515,1.038,1,1,0,0,0,.308.75A1.126,1.126,0,0,0,896.434,38.909Zm27.5,6.978-0.314-.242a0.162,0.162,0,0,0-.213.013c-0.2.2-.5,0.521-0.908,0.968-0.381.42-.837,0.893-1.352,1.4a21.165,21.165,0,0,1-1.636,1.456,9.7,9.7,0,0,1-1.76,1.136,3.84,3.84,0,0,1-1.688.432,0.261,0.261,0,0,1-.326-0.3,1.99,1.99,0,0,1,.415-0.96,14.141,14.141,0,0,1,1.427-1.74l5.292-5.785a0.161,0.161,0,0,0,.024-0.183,0.166,0.166,0,0,0-.165-0.085c-0.133.019-.323,0.033-0.566,0.042s-0.445.014-.59,0.014a3.38,3.38,0,0,1-.9-0.108,0.159,0.159,0,0,0-.163.049q-0.332.371-.684,0.777-0.18.208-.4,0.449a2.091,2.091,0,0,0,.014-0.236,1.1,1.1,0,0,0-.648-1,2.981,2.981,0,0,0-1.46-.334,9.42,9.42,0,0,0-3.522.76,12.186,12.186,0,0,0-4.02,3.022,9.121,9.121,0,0,0-.621.717,66.4,66.4,0,0,1-6.1,4.381,4.509,4.509,0,0,1-1.955.511,0.835,0.835,0,0,1-.483-0.087,0.227,0.227,0,0,1-.094-0.194,0.451,0.451,0,0,1,.133-0.251,5.02,5.02,0,0,1,.4-0.409,7.32,7.32,0,0,0,1.84-1.925,2.979,2.979,0,0,0,.37-1.334,2.065,2.065,0,0,0-1.33-1.882c0.129-.093.258-0.192,0.384-0.3a5.863,5.863,0,0,0,.623-0.595,2.7,2.7,0,0,1,2.666-.9,1.2,1.2,0,0,0-.142.123,0.9,0.9,0,0,0,.075,1.3,1.13,1.13,0,0,0,.739.28,1.484,1.484,0,0,0,.861-0.256,1.043,1.043,0,0,0,.415-0.883,1.177,1.177,0,0,0-.506-0.955c-0.9-.749-3.209-0.767-4.771.91a5.838,5.838,0,0,1-.665.618,2.516,2.516,0,0,1-.534.32,5.033,5.033,0,0,0-.723-0.122c4.435-4.992,12.813-14.231,12.923-14.353a0.162,0.162,0,0,0,.026-0.178,0.156,0.156,0,0,0-.157-0.09c-0.139.009-.265,0.021-0.379,0.036a2.045,2.045,0,0,1-.272.02c-0.409.009-.73,0.005-0.956-0.014s-0.41-.033-0.536-0.042a0.158,0.158,0,0,0-.134.056l-9.734,11.355c-2.265,1.808-9.319,7.435-9.989,7.957a12.9,12.9,0,0,1-1.977,1.281,3.938,3.938,0,0,1-1.779.5A5.562,5.562,0,0,1,886.728,51c-0.263-.034-0.3-0.148-0.3-0.268a1.575,1.575,0,0,1,.275-0.716,12.548,12.548,0,0,1,1.069-1.419c0.52-.623,1.27-1.469,2.232-2.517s2.216-2.4,3.744-4.032a0.161,0.161,0,0,0,.026-0.183,0.159,0.159,0,0,0-.163-0.086c-0.08.009-.163,0.016-0.248,0.02-0.187.011-.555,0.011-1.22-0.007-0.349-.01-0.571-0.019-0.663-0.028a0.166,0.166,0,0,0-.133.05c-0.2.214-.389,0.413-0.581,0.618-2.261,1.624-11,7.6-11.722,8a4.641,4.641,0,0,1-2.155.628c-0.417-.015-0.629-0.114-0.629-0.3a1.07,1.07,0,0,1,.148-0.413,9.559,9.559,0,0,1,.616-0.979c0.305-.44.76-1.051,1.353-1.816s1.4-1.768,2.366-2.944l3.593-4.22h3.431c0.482,0,.554-0.235.554-0.375,0-.164-0.105-0.359-0.6-0.359h-2.782l3.331-4.243a0.163,0.163,0,0,0,.012-0.181,0.161,0.161,0,0,0-.165-0.077,4.23,4.23,0,0,1-.654.054q-0.616.014-.951-0.006c-0.221-.014-0.4-0.03-0.53-0.049a0.166,0.166,0,0,0-.151.063l-3.36,4.439H879.59c-0.188,0-.757,0-0.757.388,0,0.23.212,0.346,0.632,0.346h2.368c-0.275.242-3.267,2.612-5.689,4.53-1.872,1.482-3.488,2.763-3.653,2.9a8.685,8.685,0,0,1-1.156.81A5.307,5.307,0,0,0,871.5,47a13.316,13.316,0,0,0-.207-1.608Q871.135,44.559,871,43.8a6.253,6.253,0,0,1-.114-1.247,1.437,1.437,0,0,1,.027-0.313,2.17,2.17,0,0,1,.414-0.517A2.133,2.133,0,0,0,872.1,40.6a0.641,0.641,0,0,0-.79-0.631,0.748,0.748,0,0,0-.675.425,2.98,2.98,0,0,0-.289.774,1.209,1.209,0,0,0-.146.22c-1.584,1.352-8.85,7.427-9.665,8.1a9.332,9.332,0,0,1-1.7,1.135,3.61,3.61,0,0,1-1.63.431,0.254,0.254,0,0,1-.31-0.3,2.035,2.035,0,0,1,.4-0.962,13.943,13.943,0,0,1,1.384-1.74l5.124-5.785a0.162,0.162,0,0,0,.021-0.183,0.159,0.159,0,0,0-.165-0.082c-0.128.018-.311,0.032-0.546,0.041s-0.431.014-.571,0.014a3.154,3.154,0,0,1-.868-0.107A0.16,0.16,0,0,0,861.5,42q-0.32.371-.663,0.778c-0.113.135-.237,0.279-0.374,0.435a1.9,1.9,0,0,0,.013-0.225A1.109,1.109,0,0,0,859.846,42a2.815,2.815,0,0,0-1.418-.335,8.9,8.9,0,0,0-3.415.761,11.855,11.855,0,0,0-3.895,3.023c-0.157.167-.3,0.335-0.438,0.5L848.5,47.558c-1.139.841-2.15,1.586-2.412,1.782a12.653,12.653,0,0,1-2.008,1.231,4.35,4.35,0,0,1-1.884.482c-0.577,0-.577-0.225-0.577-0.309A0.97,0.97,0,0,1,841.7,50.4a4.786,4.786,0,0,1,.454-0.753c0.252-.366.646-0.9,1.173-1.59s1.271-1.645,2.212-2.841l12.906-16.26a0.159,0.159,0,0,0,.016-0.175,0.154,0.154,0,0,0-.153-0.085c-0.14.009-.266,0.022-0.378,0.036a2.289,2.289,0,0,1-.275.02c-0.42.009-.73,0.005-0.948-0.014s-0.413-.033-0.56-0.043a0.144,0.144,0,0,0-.136.059l-8.5,10.509-8.739,6.957a0.161,0.161,0,0,0-.058.155l0.106,0.563a0.162,0.162,0,0,0,.1.121,0.159,0.159,0,0,0,.156-0.025l6.545-5.2-1.754,2.675c-0.841,1.1-1.483,1.955-1.964,2.611s-0.844,1.182-1.083,1.572a4.168,4.168,0,0,0-.473.98,2.916,2.916,0,0,0-.108.791,1.16,1.16,0,0,0,.494.946,1.892,1.892,0,0,0,1.19.368,5.462,5.462,0,0,0,2.241-.52,12.589,12.589,0,0,0,2.211-1.292c0.224-.163,1.779-1.3,3.318-2.425-0.016.037-.037,0.074-0.052,0.111a5.7,5.7,0,0,0-.445,2.1,2.134,2.134,0,0,0,.49,1.475,1.982,1.982,0,0,0,1.542.552,5.683,5.683,0,0,0,2.55-.9,10.681,10.681,0,0,0,2.021-1.536,3.557,3.557,0,0,0-.381.675,2.013,2.013,0,0,0-.139.721c0,0.692.565,1.044,1.681,1.044a4.5,4.5,0,0,0,1.948-.471,10.212,10.212,0,0,0,1.885-1.188c0.459-.361,6.759-5.589,9.242-7.679a8.012,8.012,0,0,0-.351,1.915c-0.048.826-.1,1.443-0.149,1.884a6.223,6.223,0,0,1-1.075,2.987,5.087,5.087,0,0,1-1.786,1.556,3.325,3.325,0,0,1-1.878.384,2.771,2.771,0,0,1-1.016-.323,0.7,0.7,0,0,1-.4-0.664,1.085,1.085,0,0,1,.7-1.08c0.06,0.035.132,0.081,0.217,0.137a1.368,1.368,0,0,0,1.3.032,0.864,0.864,0,0,0,.418-0.658,0.679,0.679,0,0,0-.8-0.7,2.806,2.806,0,0,0-.923.239,3.374,3.374,0,0,0-1.113.725,1.727,1.727,0,0,0-.527,1.291,1.414,1.414,0,0,0,.681,1.291,3.47,3.47,0,0,0,1.44.508,6.444,6.444,0,0,0,.68.032,10.886,10.886,0,0,0,3.326-.491,4.177,4.177,0,0,0,2.235-2.059,7.241,7.241,0,0,0,1.768-1.024c0.161-.131,1.686-1.326,3.45-2.71,1.431-1.121,2.69-2.108,3.7-2.9l-1.375,1.7c-0.825,1.058-1.5,1.934-2,2.6-0.488.654-.86,1.188-1.107,1.587a4.321,4.321,0,0,0-.489,1,2.9,2.9,0,0,0-.116.807,1.105,1.105,0,0,0,.5.928,2.361,2.361,0,0,0,1.39.344,5.3,5.3,0,0,0,2.526-.689c0.568-.307,5.729-3.8,9.271-6.234-0.2.221-.391,0.438-0.565,0.636-0.853.975-1.511,1.777-1.956,2.384a8.048,8.048,0,0,0-.921,1.508,2.758,2.758,0,0,0-.248,1.052,1.118,1.118,0,0,0,.673,1,3.4,3.4,0,0,0,1.624.34,5.168,5.168,0,0,0,2.2-.528,12.508,12.508,0,0,0,2.147-1.3c0.339-.254,4.111-3.258,7.125-5.666l-6,7a0.161,0.161,0,0,0,.162.261c0.109-.027.285-0.057,0.524-0.089a4.5,4.5,0,0,1,.552-0.049,4.684,4.684,0,0,1,.879.068,0.163,0.163,0,0,0,.162-0.064c0.859-1.192,1.819-2.49,2.856-3.859,0.165-.218.668-0.8,1.4-1.633a5.172,5.172,0,0,0,.87-0.08,4.021,4.021,0,0,0,1.127-.378,0.854,0.854,0,0,1,.752.654,0.507,0.507,0,0,1-.125.275,5.455,5.455,0,0,1-.59.616,7.306,7.306,0,0,0-1.557,1.753,2.835,2.835,0,0,0-.412,1.331,1.865,1.865,0,0,0,.386,1.159,1.593,1.593,0,0,0,1.344.526,4.969,4.969,0,0,0,2.232-.558,45.759,45.759,0,0,0,5.147-3.663c-0.014.032-.033,0.063-0.046,0.095a5.553,5.553,0,0,0-.459,2.1,1.849,1.849,0,0,0,2.093,2.027,5.99,5.99,0,0,0,2.628-.9,11.062,11.062,0,0,0,2.11-1.557,3.532,3.532,0,0,0-.406.693,1.946,1.946,0,0,0-.144.723c0,0.692.582,1.044,1.73,1.044a4.757,4.757,0,0,0,2.007-.471,10.539,10.539,0,0,0,1.946-1.187,19.67,19.67,0,0,0,1.757-1.508c0.541-.524,1.026-1.015,1.443-1.459s0.741-.787.971-1.023A0.162,0.162,0,0,0,924,46,0.158,0.158,0,0,0,923.933,45.887Zm-6.774-.18-0.7.768a22.467,22.467,0,0,1-3.926,3.515,5.29,5.29,0,0,1-2.566,1.036,0.483,0.483,0,0,1-.545-0.58,3.706,3.706,0,0,1,.5-1.608,11.088,11.088,0,0,1,1.671-2.245,17.394,17.394,0,0,1,3.74-3.184,5.919,5.919,0,0,1,2.407-.983,1.287,1.287,0,0,1,.671.185,0.54,0.54,0,0,1,.267.51,1.962,1.962,0,0,1-.272.907,9.063,9.063,0,0,1-.626,1.005Q917.482,45.348,917.159,45.707Zm-58.906,0c-0.207.237-.433,0.494-0.675,0.768a21.989,21.989,0,0,1-3.8,3.515,5.017,5.017,0,0,1-2.48,1.035,0.475,0.475,0,0,1-.524-0.58,3.793,3.793,0,0,1,.485-1.61,11.054,11.054,0,0,1,1.618-2.244,17,17,0,0,1,3.621-3.184,5.613,5.613,0,0,1,2.326-.982,1.19,1.19,0,0,1,.646.184,0.552,0.552,0,0,1,.258.511,2.019,2.019,0,0,1-.264.909,9.144,9.144,0,0,1-.606,1.006Q858.566,45.35,858.253,45.708Z" transform="translate(-810 -24.969)"/>
</svg>
